<svg xmlns="http://www.w3.org/2000/svg" width="25" height="25" viewBox="0 0 25 25">
  <g id="Group_1" data-name="Group 1" transform="translate(-596 -965)">
    <circle id="Ellipse_28" data-name="Ellipse 28" cx="12.5" cy="12.5" r="12.5" transform="translate(596 965)" fill="#009adb"/>
    <path id="Icon_fa-brands-forumbee" data-name="Icon fa-brands-forumbee" d="M.194,11.658A7.885,7.885,0,0,1,0,9.938,7.472,7.472,0,0,1,7.47,2.461a7.769,7.769,0,0,1,1.651.184A15.4,15.4,0,0,0,.194,11.658ZM13.349,5.324a7.394,7.394,0,0,0-1.6-1.517A15.342,15.342,0,0,0,1.379,14.253a7.51,7.51,0,0,0,1.513,1.641A15.412,15.412,0,0,1,13.349,5.324Zm.529,8.461a7.382,7.382,0,0,0,.988-2.772,15.641,15.641,0,0,0-6.281,6.372,7.418,7.418,0,0,0,2.833-1.048A35.518,35.518,0,0,0,15,17.461,36.935,36.935,0,0,0,13.878,13.785Zm.994-4.872a7.112,7.112,0,0,0-.529-1.9A15.439,15.439,0,0,0,4.59,16.892a7.517,7.517,0,0,0,1.9.509A15.47,15.47,0,0,1,14.873,8.913Z" transform="translate(601 967.539)" fill="#fff"/>
  </g>
</svg>
