<svg xmlns="http://www.w3.org/2000/svg" width="25" height="25" viewBox="0 0 25 25">
  <g id="Group_714" data-name="Group 714" transform="translate(780 -4639)">
    <g id="Group_356" data-name="Group 356" transform="translate(79 -52)">
      <g id="Group_355" data-name="Group 355" transform="translate(-379.969 -0.731)">
        <circle id="Ellipse_28" data-name="Ellipse 28" cx="12.5" cy="12.5" r="12.5" transform="translate(-479.031 4691.731)" fill="#009adb"/>
      </g>
      <g id="octopus-312102" transform="translate(-1215.335 4758.811)">
        <path id="Path_23" data-name="Path 23" d="M23.3-4.017A3.522,3.522,0,0,0,19.674-.6a3.3,3.3,0,0,0,1.034,2.386c.338,1.42.515,3.394-.723,4.353C17.968,7.7,16.7,7.863,16.569,5.553c-2.829,1.925-.68,4.121,2.174,3.5,2.966-.65,3.7-4.2,3.726-3.827.109,1.423-1.448,3.578-.62,3.994s1.832.834,1.759-.332a15.577,15.577,0,0,1,.517-3.995s.481,3.771,2.588,4.327c2.366.624,4.469-.541,3-2.413,0,0,0,1.248-1.035,1.248C25.866,6.818,25.61,4.123,25.95,1.717A3.294,3.294,0,0,0,26.919-.6,3.522,3.522,0,0,0,23.3-4.017Z" transform="translate(346.114 -58.123)" fill="#fff"/>
      </g>
    </g>
  </g>
</svg>
