<svg xmlns="http://www.w3.org/2000/svg" width="25" height="25" viewBox="0 0 25 25">
  <g id="Group_1757" data-name="Group 1757" transform="translate(-3554 -2776)">
    <circle id="Ellipse_28" data-name="Ellipse 28" cx="12.5" cy="12.5" r="12.5" transform="translate(3554 2776)" fill="#009adb"/>
    <path id="Path_78" data-name="Path 78" d="M99.19-285.852a3.439,3.439,0,0,0,.022,1.417,8.452,8.452,0,0,0,1.263,2.355,2.391,2.391,0,0,1,.253.384c-.011.005-.1.077-.2.159-.2.165-.154.17-.972-.17a2.106,2.106,0,0,0-1.18-.258,11.917,11.917,0,0,0-1.263.093c-.379.049-.9.11-1.164.132-.384.027-.483.055-.483.121,0,.143.461.538.846.719a10.954,10.954,0,0,0,3.152.752c.2.033.22.115.115.648-.088.434-.22.527-.73.527a7.084,7.084,0,0,1-1.1-.148,6.472,6.472,0,0,0-2.74-.027,4.943,4.943,0,0,0-2.043,1.3,4.678,4.678,0,0,0-1.367,2.416A6.454,6.454,0,0,0,91.69-273l.132.505-.291.165a1.292,1.292,0,0,0-.4.346,1.006,1.006,0,0,0,.264,1.208,1.229,1.229,0,0,0,1.082.445,1.828,1.828,0,0,0,.928-.209l.483-.214.571.181a6.753,6.753,0,0,0,.966.225c.22.022,1.345.027,2.5.011,2.312-.038,2.268-.033,2.158-.357a.936.936,0,0,0-.7-.7,3.973,3.973,0,0,0-.868-.143c-.835-.049-.84-.066-.11-.291a7.752,7.752,0,0,0,1.01-.379,2.5,2.5,0,0,1,.362-.165c.005.011.066.225.137.478a6.231,6.231,0,0,0,.351.9c.291.577.4.642,1.131.681.692.038.824-.022.824-.39,0-.324-.137-.483-.494-.576l-.291-.077.033-.39c.022-.214.06-.7.088-1.076l.055-.686.209-.165a6.262,6.262,0,0,0,1.6-1.988c.137-.3.148-.384.176-1.235.033-1.043.038-1.06.577-1.367a2.22,2.22,0,0,0,.423-.307,3.021,3.021,0,0,0,.428-.933,14.2,14.2,0,0,0-1.362-1.784,2.94,2.94,0,0,0-1.054-.566,1.95,1.95,0,0,1-.34-.132,2.93,2.93,0,0,1-.181-.516,8.339,8.339,0,0,0-.384-1.01,2.831,2.831,0,0,0-.785-1.06A16.536,16.536,0,0,0,99.3-286C99.272-286,99.223-285.934,99.19-285.852Z" transform="translate(3468.479 3065.131)" fill="#fff"/>
  </g>
</svg>
