<svg xmlns="http://www.w3.org/2000/svg" width="25" height="25" viewBox="0 0 25 25">
  <g id="Group_4" data-name="Group 4" transform="translate(-706 -842)">
    <circle id="Ellipse_28" data-name="Ellipse 28" cx="12.5" cy="12.5" r="12.5" transform="translate(706 842)" fill="#009adb"/>
    <g id="Subtraction_2" data-name="Subtraction 2" transform="translate(712.533 850.019)" fill="#fff">
      <path d="M 6.04293155670166 9.562760353088379 C 4.843761444091797 9.562760353088379 3.658671617507935 9.03307056427002 2.705971717834473 8.071269989013672 C 1.607961654663086 6.963250160217285 0.9863016605377197 5.465650081634521 1.000231623649597 3.962300062179565 C 1.015491604804993 2.410980224609375 1.680021643638611 1.873980164527893 2.257251739501953 1.579540133476257 C 3.274971723556519 1.060060143470764 4.905201435089111 1.00000011920929 6.04293155670166 1.00000011920929 C 7.187631607055664 1.00000011920929 8.828851699829102 1.060270190238953 9.861211776733398 1.581440210342407 C 10.44628143310547 1.87660014629364 11.11757183074951 2.412780284881592 11.11757183074951 3.95304012298584 C 11.11757183074951 5.359800338745117 10.55376148223877 6.789060115814209 9.570712089538574 7.874350070953369 C 8.59835147857666 8.947290420532227 7.312461853027344 9.562760353088379 6.04293155670166 9.562760353088379 Z M 8.587291717529297 1.820480227470398 C 7.319351673126221 1.820480227470398 6.287811756134033 2.852370262145996 6.287811756134033 4.120740413665771 C 6.287811756134033 5.389110088348389 7.319351673126221 6.421000003814697 8.587291717529297 6.421000003814697 C 9.855661392211914 6.421000003814697 10.88755130767822 5.389110088348389 10.88755130767822 4.120740413665771 C 10.88755130767822 2.852370262145996 9.855661392211914 1.820480227470398 8.587291717529297 1.820480227470398 Z M 3.387811660766602 1.820480227470398 C 2.119441747665405 1.820480227470398 1.087551712989807 2.852370262145996 1.087551712989807 4.120740413665771 C 1.087551712989807 5.389110088348389 2.119441747665405 6.421000003814697 3.387811660766602 6.421000003814697 C 4.656181812286377 6.421000003814697 5.688071727752686 5.389110088348389 5.688071727752686 4.120740413665771 C 5.688071727752686 2.852370262145996 4.656181812286377 1.820480227470398 3.387811660766602 1.820480227470398 Z" stroke="none"/>
      <path d="M 6.04293155670166 8.562760353088379 C 6.944465160369873 8.562760353088379 7.869360446929932 8.149788856506348 8.619279861450195 7.420847415924072 C 8.608640670776367 7.42094898223877 8.597954750061035 7.421000003814697 8.587291717529297 7.421000003814697 C 7.532820701599121 7.421000003814697 6.592299938201904 6.923671722412109 5.987858772277832 6.151197910308838 C 5.398873805999756 6.903741359710693 4.490866184234619 7.395153045654297 3.469231605529785 7.420009613037109 C 4.222665786743164 8.157511711120605 5.134010791778564 8.562760353088379 6.04293155670166 8.562760353088379 M 6.04293155670166 10.56276035308838 C 4.574851512908936 10.56276035308838 3.137451648712158 9.927860260009766 1.995511651039124 8.77500057220459 C 0.7111316323280334 7.478919982910156 -0.01610834151506424 5.721380233764648 0.0002716589369811118 3.95304012298584 C 0.01587165892124176 2.367270231246948 0.605501651763916 1.29951012134552 1.802851676940918 0.6887401938438416 C 2.998811721801758 0.0782901793718338 4.697051525115967 1.765441908219145e-07 6.04293155670166 1.765441908219145e-07 C 7.395281791687012 1.765441908219145e-07 9.102642059326172 0.0782901793718338 10.31187152862549 0.6887401938438416 C 11.52692127227783 1.301720142364502 12.11757183074951 2.369490146636963 12.11757183074951 3.95304012298584 C 12.11757183074951 5.604830265045166 11.45942211151123 7.278779983520508 10.31187152862549 8.545680046081543 C 9.150151252746582 9.827569961547852 7.594181537628174 10.56276035308838 6.04293155670166 10.56276035308838 Z M 8.587291717529297 2.820480108261108 C 7.870761871337891 2.820480108261108 7.287811756134033 3.403770208358765 7.287811756134033 4.120740413665771 C 7.287811756134033 4.837710380554199 7.870761871337891 5.421000003814697 8.587291717529297 5.421000003814697 C 9.304261207580566 5.421000003814697 9.887551307678223 4.837710380554199 9.887551307678223 4.120740413665771 C 9.887551307678223 3.403770208358765 9.304261207580566 2.820480108261108 8.587291717529297 2.820480108261108 Z M 3.387811660766602 2.820480108261108 C 2.670841693878174 2.820480108261108 2.087551593780518 3.403770208358765 2.087551593780518 4.120740413665771 C 2.087551593780518 4.837710380554199 2.670841693878174 5.421000003814697 3.387811660766602 5.421000003814697 C 4.104781627655029 5.421000003814697 4.688071727752686 4.837710380554199 4.688071727752686 4.120740413665771 C 4.688071727752686 3.403770208358765 4.104781627655029 2.820480108261108 3.387811660766602 2.820480108261108 Z" stroke="none" fill="#fff"/>
    </g>
    <g id="Group_3" data-name="Group 3" transform="translate(0.967)">
      <path id="Path_2" data-name="Path 2" d="M1.744-.108.808.884l-.893.947L1.374,2.878" transform="translate(713.518 859.55) rotate(-10)" fill="none" stroke="#fff" stroke-linecap="round" stroke-linejoin="round" stroke-width="1"/>
      <path id="Path_3" data-name="Path 3" d="M1.881,3.079.945,2.087.053,1.14,1.511.094" transform="matrix(-0.985, -0.174, 0.174, -0.985, 721.351, 862.5)" fill="none" stroke="#fff" stroke-linecap="round" stroke-linejoin="round" stroke-width="1"/>
    </g>
    <g id="Group_2" data-name="Group 2" transform="translate(1 0.082)">
      <path id="Path_4" data-name="Path 4" d="M564.4,880.294l-1.158-1.777-.727-1.116a7.38,7.38,0,0,1-1.769,1.266,10.494,10.494,0,0,1-2.346.769" transform="translate(151.6 -29.357)" fill="none" stroke="#fff" stroke-linecap="round" stroke-linejoin="round" stroke-width="1"/>
      <path id="Path_5" data-name="Path 5" d="M558.4,880.294l1.157-1.777.727-1.116a7.38,7.38,0,0,0,1.769,1.266,10.5,10.5,0,0,0,2.346.769" transform="translate(160.784 -29.357)" fill="none" stroke="#fff" stroke-linecap="round" stroke-linejoin="round" stroke-width="1"/>
    </g>
  </g>
</svg>
