<svg xmlns="http://www.w3.org/2000/svg" width="25" height="25" viewBox="0 0 25 25">
  <g id="Group_710" data-name="Group 710" transform="translate(701 -4832)">
    <circle id="Ellipse_28" data-name="Ellipse 28" cx="12.5" cy="12.5" r="12.5" transform="translate(-701 4832)" fill="#009adb"/>
    <g id="dove-5165022" transform="translate(-697.271 4837.717)">
      <path id="Path_18" data-name="Path 18" d="M0,216.379c.146-.24.42-.258.775-.139,1.26-1.65,2.546-2.137,3.913-1.073,3.665,2.855,7.81,1.634,9.017-2.3,1.519,4.861.379,9.155-5.363,9.355,1.758,1.509,5.408-2.372,8.282.1a2.241,2.241,0,0,1,.668,2.838.587.587,0,0,1-.863.24c-1.784-1.212-2.925-1.526-6.737-.675-3.689.824-8.5-.963-8.143-5.323A3.141,3.141,0,0,0,0,216.379Z" transform="translate(0 -211.931)" fill="#fff"/>
      <path id="Path_19" data-name="Path 19" d="M1854.61,4.439A8.2,8.2,0,0,0,1856.666,0a6.31,6.31,0,0,1,.924,3.873A4.538,4.538,0,0,1,1854.61,4.439Z" transform="translate(-1846.477)" fill="#fff"/>
    </g>
  </g>
</svg>
