<svg xmlns="http://www.w3.org/2000/svg" width="25" height="25" viewBox="0 0 25 25">
  <g id="Group_713" data-name="Group 713" transform="translate(715 -4631)">
    <g id="Group_358" data-name="Group 358" transform="translate(-235.969 -60.731)">
      <circle id="Ellipse_28" data-name="Ellipse 28" cx="12.5" cy="12.5" r="12.5" transform="translate(-479.031 4691.731)" fill="#009adb"/>
    </g>
    <g id="dolphin-152992" transform="translate(-1273.98 3524.069)">
      <path id="Path_20" data-name="Path 20" d="M341.957,626.539c-.133.242.547.3.626.564a.776.776,0,0,1-.2.741c-1.61,1.532-3.483,2.71-4.819,4.4a9.639,9.639,0,0,0-1.316,2.76,4.431,4.431,0,0,0-2.794,1.034,8.209,8.209,0,0,1,1.333-.053c.349.04.668.219,1.014.278a3.007,3.007,0,0,1,.3.022,2.605,2.605,0,0,1,1.037.775c.279-.041.8-1.475-.215-1.926a9.536,9.536,0,0,1,1.559-1.715,9.129,9.129,0,0,1,2.446-1.34,11.642,11.642,0,0,1,3.573-.778c1.538-.061,4.37-.088,4.773-.029.275.04-.429.143-.553.309-.161.213-.043.537-.168.771-.2.374-1.045.776-.895.927.191.192,1.152-.12,1.618-.412.646-.4.852-1.552,1.441-1.733.8-.246,2.117.325,3.179.466.4.053,1,.475,1.208.143.191-.3-.474-.551-.639-.867-.129-.246-.119-.549-.266-.785a4.692,4.692,0,0,0-1.468-1.471,9.663,9.663,0,0,0-4.5-1.581c-1.54-.077-2.327.261-3.169.126-.773-.123-2.358-.967-3.105-.62Zm-2.422,4.652a42.1,42.1,0,0,1,5.1-3.049,5.894,5.894,0,0,1,3.9-.534c1.115.306.923.638.74.9-.492.39-1.141-.3-.711-.26-.155-.228-1.333-.337-1.3-.043.023.242,1.172.715-.183.452-2.008-.39-7.111,2.439-7.538,2.538Zm13.745-1.149c.035.031.373-.016.446.113a.127.127,0,0,1-.057.164C353.514,630.366,353.279,630.043,353.279,630.043Z" transform="translate(226.684 488.32)" fill="#fff"/>
    </g>
  </g>
</svg>
