<svg xmlns="http://www.w3.org/2000/svg" width="140" height="140" viewBox="0 0 140 140">
  <g id="Group_1532" data-name="Group 1532" transform="translate(539 -5679)">
    <circle id="Ellipse_70" data-name="Ellipse 70" cx="70" cy="70" r="70" transform="translate(-539 5679)" fill="#d2d2d2"/>
    <path id="Path_45" data-name="Path 45" d="M5.444,0H1.88V-17.773H5.444ZM16.4-2.49a2.108,2.108,0,0,0,1.526-.552A1.951,1.951,0,0,0,18.5-4.517H21.73l.037.073a4.114,4.114,0,0,1-1.508,3.351A5.69,5.69,0,0,1,16.4.256a5.666,5.666,0,0,1-4.553-1.868,7.116,7.116,0,0,1-1.6-4.8v-.366a7.163,7.163,0,0,1,1.593-4.8,5.63,5.63,0,0,1,4.547-1.88,5.547,5.547,0,0,1,3.937,1.392A4.623,4.623,0,0,1,21.767-8.4l-.024.073H18.5a2.579,2.579,0,0,0-.562-1.7,1.9,1.9,0,0,0-1.55-.677,2.068,2.068,0,0,0-2,1.1,6.034,6.034,0,0,0-.58,2.828v.366a6.012,6.012,0,0,0,.58,2.846A2.087,2.087,0,0,0,16.4-2.49Zm9-4.236a7.088,7.088,0,0,1,1.648-4.84,5.744,5.744,0,0,1,4.565-1.886,5.805,5.805,0,0,1,4.59,1.88,7.05,7.05,0,0,1,1.66,4.846v.256A7.061,7.061,0,0,1,36.2-1.617,5.781,5.781,0,0,1,31.632.256a5.8,5.8,0,0,1-4.584-1.874A7.061,7.061,0,0,1,25.394-6.47Zm3.552.25a5.731,5.731,0,0,0,.635,2.895A2.192,2.192,0,0,0,31.632-2.49a2.171,2.171,0,0,0,2.02-1.1,5.692,5.692,0,0,0,.641-2.889v-.256A5.635,5.635,0,0,0,33.646-9.6a2.19,2.19,0,0,0-2.039-1.109,2.163,2.163,0,0,0-2.02,1.115,5.685,5.685,0,0,0-.641,2.858Zm16.518-6.732.159,1.892a4.831,4.831,0,0,1,1.624-1.575,4.214,4.214,0,0,1,2.161-.562,3.974,3.974,0,0,1,3.125,1.257,5.805,5.805,0,0,1,1.123,3.943V0H50.078V-8.259a2.682,2.682,0,0,0-.537-1.89,2.159,2.159,0,0,0-1.624-.557,2.745,2.745,0,0,0-1.27.288,2.612,2.612,0,0,0-.94.814V0H42.143V-13.208Z" transform="translate(-496 5759)" fill="#9f9f9f"/>
  </g>
</svg>
