<svg xmlns="http://www.w3.org/2000/svg" width="17" height="18.889" viewBox="0 0 17 18.889">
  <path id="ic_assignment_24px" d="M18.111,2.889H14.163a2.822,2.822,0,0,0-5.327,0H4.889A1.894,1.894,0,0,0,3,4.778V18a1.894,1.894,0,0,0,1.889,1.889H18.111A1.894,1.894,0,0,0,20,18V4.778A1.894,1.894,0,0,0,18.111,2.889Zm-6.611,0a.944.944,0,1,1-.944.944A.947.947,0,0,1,11.5,2.889Zm1.889,13.222H6.778V14.222h6.611Zm2.833-3.778H6.778V10.444h9.444Zm0-3.778H6.778V6.667h9.444Z" transform="translate(-3 -1)" fill="#009adb"/>
</svg>
