<svg xmlns="http://www.w3.org/2000/svg" width="512.002" height="333.912" viewBox="0 0 512.002 333.912">
  <g id="eye-svgrepo-com" transform="translate(0 -89.044)">
    <g id="Group_3" data-name="Group 3">
      <g id="Group_2" data-name="Group 2">
        <path id="Path_115" data-name="Path 115" d="M256,155.827A100.174,100.174,0,1,0,356.174,256,100.288,100.288,0,0,0,256,155.827Zm0,166.956A66.783,66.783,0,1,1,322.783,256,66.859,66.859,0,0,1,256,322.783Z" fill="#b9b9b9"/>
      </g>
    </g>
    <g id="Group_5" data-name="Group 5">
      <g id="Group_4" data-name="Group 4">
        <circle id="Ellipse_33" data-name="Ellipse 33" cx="33.391" cy="33.391" r="33.391" transform="translate(222.609 222.61)" fill="#b9b9b9"/>
      </g>
    </g>
    <g id="Group_7" data-name="Group 7">
      <g id="Group_6" data-name="Group 6">
        <path id="Path_116" data-name="Path 116" d="M508.759,246.114c-1.173-1.6-29.245-39.541-73.893-77.906-26.439-22.719-53.254-40.873-79.7-53.955C321.354,97.526,287.989,89.044,256,89.044s-65.353,8.481-99.168,25.209c-26.444,13.082-53.258,31.235-79.7,53.955-44.646,38.365-72.718,76.31-73.893,77.906a16.7,16.7,0,0,0,0,19.773c1.174,1.6,29.246,39.541,73.893,77.9,26.439,22.719,53.254,40.873,79.7,53.955,33.814,16.728,67.179,25.209,99.168,25.209s65.353-8.481,99.168-25.209c26.445-13.082,53.259-31.235,79.7-53.955,44.646-38.365,72.72-76.31,73.893-77.906A16.693,16.693,0,0,0,508.759,246.114ZM256,389.566c-100.254,0-191.388-101.137-218.033-133.575C64.585,223.527,155.551,122.436,256,122.436c100.254,0,191.388,101.137,218.033,133.575C447.416,288.475,356.449,389.566,256,389.566Z" fill="#b9b9b9"/>
      </g>
    </g>
  </g>
</svg>
