<svg xmlns="http://www.w3.org/2000/svg" width="30" height="19.565" viewBox="0 0 30 19.565">
  <g id="eye-svgrepo-com" transform="translate(0.002 -89.044)">
    <g id="Group_3" data-name="Group 3" transform="translate(9.019 92.847)">
      <g id="Group_2" data-name="Group 2" transform="translate(0 0)">
        <path id="Path_115" data-name="Path 115" d="M161.805,155.827a5.979,5.979,0,1,0,5.979,5.979A5.979,5.979,0,0,0,161.805,155.827Zm0,9.965a3.986,3.986,0,1,1,3.986-3.986A3.986,3.986,0,0,1,161.805,165.792Z" transform="translate(-155.826 -155.827)" fill="#a5a5a5"/>
      </g>
    </g>
    <g id="Group_5" data-name="Group 5" transform="translate(13.005 96.834)">
      <g id="Group_4" data-name="Group 4" transform="translate(0 0)">
        <circle id="Ellipse_33" data-name="Ellipse 33" cx="1.993" cy="1.993" r="1.993" fill="#a5a5a5"/>
      </g>
    </g>
    <g id="Group_7" data-name="Group 7" transform="translate(-0.002 89.044)">
      <g id="Group_6" data-name="Group 6" transform="translate(0 0)">
        <path id="Path_116" data-name="Path 116" d="M29.808,98.247a30.531,30.531,0,0,0-4.33-4.565,22.708,22.708,0,0,0-4.67-3.161A13.122,13.122,0,0,0,15,89.044a13.123,13.123,0,0,0-5.811,1.477,22.714,22.714,0,0,0-4.67,3.161,30.558,30.558,0,0,0-4.33,4.565.979.979,0,0,0,0,1.159,30.526,30.526,0,0,0,4.33,4.564,22.708,22.708,0,0,0,4.67,3.161A13.122,13.122,0,0,0,15,108.609a13.123,13.123,0,0,0,5.811-1.477,22.71,22.71,0,0,0,4.67-3.161,30.551,30.551,0,0,0,4.33-4.565A.978.978,0,0,0,29.808,98.247ZM15,106.653c-5.874,0-11.214-5.926-12.775-7.827C3.782,96.924,9.112,91,15,91s11.214,5.926,12.775,7.827C26.214,100.729,20.884,106.653,15,106.653Z" transform="translate(0.002 -89.044)" fill="#a5a5a5"/>
      </g>
    </g>
  </g>
</svg>
