<svg xmlns="http://www.w3.org/2000/svg" width="19.029" height="16.65" viewBox="0 0 19.029 16.65">
  <path id="Icon_awesome-camera" data-name="Icon awesome-camera" d="M19.029,6.413v10.7A1.784,1.784,0,0,1,17.245,18.9H1.784A1.784,1.784,0,0,1,0,17.116V6.413A1.784,1.784,0,0,1,1.784,4.629H5.054l.457-1.223A1.781,1.781,0,0,1,7.18,2.25h4.664a1.781,1.781,0,0,1,1.669,1.156l.461,1.223h3.271A1.784,1.784,0,0,1,19.029,6.413Zm-5.054,5.352a4.46,4.46,0,1,0-4.46,4.46A4.463,4.463,0,0,0,13.974,11.764Zm-1.189,0A3.271,3.271,0,1,1,9.514,8.494,3.275,3.275,0,0,1,12.785,11.764Z" transform="translate(0 -2.25)" fill="#009adb"/>
</svg>
