<svg xmlns="http://www.w3.org/2000/svg" width="55" height="55" viewBox="0 0 55 55">
  <g id="Group_1531" data-name="Group 1531" transform="translate(-372 -304)">
    <circle id="Ellipse_69" data-name="Ellipse 69" cx="27.5" cy="27.5" r="27.5" transform="translate(372 304)" fill="#009adb"/>
    <path id="Icon_fa-solid-clipboard-user" data-name="Icon fa-solid-clipboard-user" d="M11,0A5.485,5.485,0,0,0,5.815,3.506H3.667A3.589,3.589,0,0,0,0,7.012V24.544A3.589,3.589,0,0,0,3.667,28.05H18.333A3.589,3.589,0,0,0,22,24.544V7.012a3.589,3.589,0,0,0-3.667-3.506H16.185A5.485,5.485,0,0,0,11,0Zm0,3.506a1.8,1.8,0,0,1,1.833,1.753,1.835,1.835,0,0,1-3.667,0A1.8,1.8,0,0,1,11,3.506ZM7.333,14.025A3.589,3.589,0,0,1,11,10.519a3.589,3.589,0,0,1,3.667,3.506A3.589,3.589,0,0,1,11,17.531,3.589,3.589,0,0,1,7.333,14.025Zm-2.75,9.642a4.485,4.485,0,0,1,4.583-4.383h3.667a4.485,4.485,0,0,1,4.583,4.383.9.9,0,0,1-.917.877H5.5a.9.9,0,0,1-.917-.877Z" transform="translate(389 317)" fill="#fff"/>
  </g>
</svg>
