<svg xmlns="http://www.w3.org/2000/svg" width="15" height="15" viewBox="0 0 15 15">
  <path id="Icon_awesome-save" data-name="Icon awesome-save" d="M14.529,5.529,11.721,2.721a1.607,1.607,0,0,0-1.136-.471H1.607A1.607,1.607,0,0,0,0,3.857V15.643A1.607,1.607,0,0,0,1.607,17.25H13.393A1.607,1.607,0,0,0,15,15.643V6.666a1.607,1.607,0,0,0-.471-1.136ZM7.5,15.107a2.143,2.143,0,1,1,2.143-2.143A2.143,2.143,0,0,1,7.5,15.107Zm3.214-10.2V8.277a.4.4,0,0,1-.4.4H2.545a.4.4,0,0,1-.4-.4V4.795a.4.4,0,0,1,.4-.4H10.2a.4.4,0,0,1,.284.118l.117.117a.4.4,0,0,1,.118.284Z" transform="translate(0 -2.25)" fill="#009adb"/>
</svg>
