<svg xmlns="http://www.w3.org/2000/svg" width="55" height="55" viewBox="0 0 55 55">
  <g id="Group_1530" data-name="Group 1530" transform="translate(-299 -304)">
    <circle id="Ellipse_69" data-name="Ellipse 69" cx="27.5" cy="27.5" r="27.5" transform="translate(299 304)" fill="#009adb"/>
    <path id="Icon_material-round-groups" data-name="Icon material-round-groups" d="M18.5,19.406a16.358,16.358,0,0,1,6.537,1.387A4.6,4.6,0,0,1,27.75,25v.956A1.542,1.542,0,0,1,26.208,27.5H10.792A1.542,1.542,0,0,1,9.25,25.958v-.94a4.568,4.568,0,0,1,2.713-4.209,16.1,16.1,0,0,1,6.537-1.4Zm-12.333.385a3.083,3.083,0,1,0-3.083-3.083A3.083,3.083,0,0,0,6.167,19.792Zm1.747,1.7a10.765,10.765,0,0,0-1.747-.154,10.716,10.716,0,0,0-4.286.894A3.1,3.1,0,0,0,0,25.08v.879A1.542,1.542,0,0,0,1.542,27.5h5.4V25.018a6.935,6.935,0,0,1,.976-3.53Zm22.919-1.7a3.083,3.083,0,1,0-3.083-3.083,3.083,3.083,0,0,0,3.083,3.083ZM37,25.08a3.1,3.1,0,0,0-1.881-2.852,10.483,10.483,0,0,0-6.028-.74,6.935,6.935,0,0,1,.971,3.53V27.5h5.4A1.542,1.542,0,0,0,37,25.958ZM18.5,9a4.619,4.619,0,1,1-3.272,1.353A4.625,4.625,0,0,1,18.5,9Z" transform="translate(308 313)" fill="#fff"/>
  </g>
</svg>
