<svg xmlns="http://www.w3.org/2000/svg" width="30" height="23.981" viewBox="0 0 30 23.981">
  <g id="eye-off-outline-svgrepo-com" transform="translate(-15.98 -64.29)">
    <path id="Path_110" data-name="Path 110" d="M87.187,88.271a.989.989,0,0,1-.7-.293l-21.919-22a1,1,0,0,1,1.409-1.414l21.919,22a1,1,0,0,1-.7,1.707Z" transform="translate(-45.247 0)" fill="#a5a5a5"/>
    <path id="Path_111" data-name="Path 111" d="M31.178,174.942a13.717,13.717,0,0,1-7.54-2.314,19.112,19.112,0,0,1-5.624-5.77v-.005a23.07,23.07,0,0,1,4.137-4.579.127.127,0,0,0,.009-.186L20.9,160.826a.127.127,0,0,0-.172-.008,25.144,25.144,0,0,0-4.38,4.877,2.024,2.024,0,0,0-.041,2.253,21.186,21.186,0,0,0,6.232,6.382,15.706,15.706,0,0,0,8.643,2.64,15.162,15.162,0,0,0,4.806-.8.127.127,0,0,0,.049-.21l-1.368-1.368a.254.254,0,0,0-.243-.063,12.986,12.986,0,0,1-3.244.41Z" transform="translate(0 -90.729)" fill="#a5a5a5"/>
    <path id="Path_112" data-name="Path 112" d="M199.173,105.042a21.491,21.491,0,0,0-6.294-6.374A15.929,15.929,0,0,0,184.261,96a14.415,14.415,0,0,0-4.749.814.127.127,0,0,0-.048.21l1.366,1.366a.254.254,0,0,0,.246.063,12.227,12.227,0,0,1,3.184-.424,13.712,13.712,0,0,1,7.517,2.346,19.448,19.448,0,0,1,5.691,5.77.008.008,0,0,1,0,.01,19.7,19.7,0,0,1-4.066,4.612.127.127,0,0,0-.01.187l1.262,1.261a.127.127,0,0,0,.171.008,21.78,21.78,0,0,0,4.352-4.976A2.042,2.042,0,0,0,199.173,105.042Z" transform="translate(-153.52 -29.7)" fill="#a5a5a5"/>
    <path id="Path_113" data-name="Path 113" d="M234.493,160a6.08,6.08,0,0,0-1.355.152.127.127,0,0,0-.063.214l7.139,7.137a.127.127,0,0,0,.214-.063,6.087,6.087,0,0,0-5.935-7.44Z" transform="translate(-203.556 -89.768)" fill="#a5a5a5"/>
    <path id="Path_114" data-name="Path 114" d="M160.346,233.1a.127.127,0,0,0-.214.063,6.087,6.087,0,0,0,7.292,7.292.127.127,0,0,0,.063-.214Z" transform="translate(-135.041 -158.297)" fill="#a5a5a5"/>
  </g>
</svg>
